<svg width="360" height="91" viewBox="0 0 360 91" fill="none" xmlns="http://www.w3.org/2000/svg">
<path d="M94.9101 45.5C94.9101 70.6289 73.6637 91 47.455 91C21.2463 91 0 70.6289 0 45.5C0 20.371 21.2463 0 47.455 0C73.6637 0 94.9101 20.371 94.9101 45.5Z" fill="#00ECDC"/>
<path d="M33.9912 22.8749C31.7406 22.8749 29.8142 17.1714 28.0651 16.505C26.1854 15.0031 26.4277 15.1786 25.8009 15.0031C24.5478 14.6522 25.2456 16.0842 26.1854 25.5165C26.293 26.5965 24.1855 36.1242 25.8009 39.8067C27.3974 43.4462 29.4672 45.437 30.9188 46.8161C29.051 50.6716 25.6082 59.7429 26.9947 65.4723C28.7438 72.7 37.4894 89.0008 52.1185 91C53.8676 91 63.0902 90.5312 73.744 83.7648C74.433 79.9716 75.5885 69.809 75.3341 64.3959C75.0827 59.047 69.7388 50.4548 67.0039 46.6907C70.7139 40.0097 70.204 34.8964 69.731 30.3226C68.7273 20.6156 70.7487 13.4324 69.731 13.8015C68.7134 14.1706 63.5672 20.0041 63.4082 20.2604C62.2952 21.2344 61.2086 22.6529 57.6838 22.2596C53.5496 21.7982 50.8819 21.952 46.8711 21.952C41.9417 21.952 35.8993 22.8749 33.9912 22.8749Z" fill="#303031"/>
<path d="M39.0806 43.9488C41.37 43.9488 43.0971 43.1445 43.5991 42.7424C46.6115 45.1553 47.6658 47.3671 47.8165 48.1714C47.9203 47.3901 48.9695 45.1199 52.335 42.8932C53.0881 43.2954 54.7751 44.0695 56.1005 43.9488C54.2931 45.4569 52.0338 48.6238 51.7326 51.1875C51.4651 53.464 51.2807 59.3309 51.7326 62.4978C52.5359 66.5193 56.8837 86.5965 60.0166 88.8887C58.4502 89.6126 53.9918 90.5978 51.8832 91C48.8708 86.9282 44.7037 61.9449 44.8041 57.9737C44.8041 56.2143 44.3221 53.0273 43.5991 50.7351C42.8762 48.4428 40.637 44.9039 39.0806 43.9488Z" fill="#00ECDC"/>
<path d="M47.8915 30.9046C49.0456 29.2708 52.0146 25.8072 55.9173 25.6765C60.7957 25.5131 63.9431 24.6962 64.73 24.0426C65.6161 23.3067 66.273 22.4928 67.8233 17.7542C69.0705 13.9421 67.9866 20.0323 67.1997 23.79C66.9375 24.498 66.5762 25.0607 64.73 26.0138C62.8838 26.9668 62.8406 27.1211 62.2111 27.2845L62.1548 27.3418C62.3525 27.7157 62.7008 28.3695 63.3137 29.2708C64.8244 31.4928 65.307 33.5732 65.3594 34.3356C65.4119 35.5338 65.1706 38.4202 63.7858 40.3807C62.4009 42.3413 59.8515 43.5939 58.75 43.9751C57.8057 44.1385 55.5396 44.3019 54.0289 43.6483C52.5182 42.9948 51.0913 41.9601 50.5668 41.5244C49.9898 40.9798 48.7413 39.4331 48.3636 37.6033C47.9859 35.7734 47.8915 35.0981 47.8915 34.9892C47.7866 36.0239 47.3879 38.3875 46.6326 39.5638C45.8772 40.7402 44.6392 42.0145 44.1147 42.5047C42.1213 43.8117 37.1904 45.5109 33.4136 41.8512C29.6367 38.1914 30.2662 33.6821 31.0531 31.8849C31.2629 30.9591 32.2176 28.8134 34.3578 27.637C34.9233 27.3262 35.2852 27.134 35.5154 27.0195C34.7208 27.0647 34.0063 26.9418 32.312 26.3314C28.2263 24.8596 28.5381 19.6602 27.9146 17.4365C28.2263 17.0388 29.1558 18.3913 29.7853 20.6133C30.4147 22.8352 31.656 23.79 32.2796 24.1077C33.2762 24.2711 35.9315 24.6962 38.1347 24.8596C40.395 25.0272 42.5934 26.2211 43.6426 26.6567C44.6392 27.2558 46.9473 29.5976 47.8915 30.9046Z" fill="#00ECDC"/>
<ellipse cx="39.7784" cy="32.4015" rx="3.48934" ry="3.44697" fill="#303031"/>
<ellipse cx="57.9229" cy="32.4015" rx="3.48934" ry="3.44697" fill="#303031"/>
<path d="M110.784 55V32.6H120.48C122.485 32.6 124.213 32.9307 125.664 33.592C127.115 34.232 128.235 35.16 129.024 36.376C129.813 37.592 130.208 39.0427 130.208 40.728C130.208 42.392 129.813 43.832 129.024 45.048C128.235 46.264 127.115 47.2027 125.664 47.864C124.213 48.504 122.485 48.824 120.48 48.824H113.664L115.968 46.488V55H110.784ZM115.968 47.064L113.664 44.6H120.192C121.792 44.6 122.987 44.2587 123.776 43.576C124.565 42.8933 124.96 41.944 124.96 40.728C124.96 39.4907 124.565 38.5307 123.776 37.848C122.987 37.1653 121.792 36.824 120.192 36.824H113.664L115.968 34.36V47.064ZM138.396 41.624H149.18V45.656H138.396V41.624ZM138.78 50.84H150.972V55H133.628V32.6H150.556V36.76H138.78V50.84ZM155.159 55V32.6H160.311V47.192L170.999 32.6H175.863V55H170.743V40.44L160.055 55H155.159ZM165.495 31.16C163.362 31.16 161.794 30.7333 160.791 29.88C159.81 29.0267 159.308 27.8213 159.287 26.264H162.839C162.86 27.032 163.084 27.6187 163.511 28.024C163.959 28.408 164.62 28.6 165.495 28.6C166.348 28.6 166.999 28.408 167.447 28.024C167.895 27.6187 168.13 27.032 168.151 26.264H171.703C171.682 27.8213 171.17 29.0267 170.167 29.88C169.164 30.7333 167.607 31.16 165.495 31.16ZM186.272 55V35.64L187.456 36.824H179.136V32.6H198.56V36.824H190.24L191.392 35.64V55H186.272ZM201.815 55V32.6H206.967V47.192L217.655 32.6H222.519V55H217.399V40.44L206.711 55H201.815ZM243.457 32.6H248.641V55H243.457V32.6ZM233.281 55H228.097V32.6H233.281V55ZM243.841 45.816H232.897V41.432H243.841V45.816ZM254.253 55V32.6H270.061L270.029 36.824H258.189L259.373 35.64L259.405 55H254.253Z" fill="#00ECDC"/>
</svg>
