<svg width="359" height="92" viewBox="0 0 359 92" fill="none" xmlns="http://www.w3.org/2000/svg">
<path d="M94.9101 46.5C94.9101 71.6289 73.6637 92 47.455 92C21.2463 92 0 71.6289 0 46.5C0 21.371 21.2463 1 47.455 1C73.6637 1 94.9101 21.371 94.9101 46.5Z" fill="#00ECDC"/>
<path d="M33.991 23.8748C31.7405 23.8748 29.8141 18.1713 28.065 17.5049C26.1853 16.003 26.4275 16.1785 25.8007 16.003C24.5476 15.6521 25.2455 17.0841 26.1853 26.5164C26.2929 27.5965 24.1854 37.1241 25.8007 40.8066C27.3972 44.4461 29.467 46.437 30.9186 47.8161C29.0509 51.6715 25.608 60.7428 26.9946 66.4723C28.7437 73.7 37.4893 90.0008 52.1183 91.9999C53.8674 91.9999 63.0901 91.5312 73.7438 84.7648C74.4329 80.9715 75.5883 70.8089 75.3339 65.3958C75.0825 60.0469 69.7386 51.4547 67.0037 47.6907C70.7138 41.0097 70.2038 35.8964 69.7309 31.3225C68.7272 21.6155 70.7486 14.4324 69.7309 14.8014C68.7132 15.1705 63.5671 21.0041 63.4081 21.2604C62.295 22.2343 61.2085 23.6529 57.6837 23.2595C53.5494 22.7982 50.8818 22.952 46.8709 22.952C41.9416 22.952 35.8992 23.8748 33.991 23.8748Z" fill="#303031"/>
<path d="M39.0806 44.9489C41.37 44.9489 43.0971 44.1446 43.5992 43.7424C46.6115 46.1553 47.6659 48.3671 47.8165 49.1714C47.9204 48.3901 48.9695 46.12 52.3351 43.8932C53.0882 44.2954 54.7751 45.0695 56.1005 44.9489C54.2931 46.4569 52.0338 49.6238 51.7326 52.1875C51.4651 54.464 51.2807 60.331 51.7326 63.4979C52.5359 67.5193 56.8838 87.5965 60.0166 89.8887C58.4502 90.6126 53.9919 91.5979 51.8832 92C48.8708 87.9283 44.7037 62.9449 44.8041 58.9737C44.8041 57.2143 44.3221 54.0273 43.5992 51.7351C42.8762 49.4429 40.637 45.904 39.0806 44.9489Z" fill="#00ECDC"/>
<path d="M47.8917 31.9047C49.0458 30.2709 52.0148 26.8072 55.9175 26.6765C60.796 26.5131 63.9433 25.6962 64.7302 25.0427C65.6163 24.3067 66.2733 23.4928 67.8235 18.7542C69.0707 14.9421 67.9868 21.0323 67.1999 24.7901C66.9377 25.4981 66.5764 26.0608 64.7302 27.0138C62.884 27.9668 62.8408 28.1211 62.2114 28.2845L62.1551 28.3419C62.3527 28.7158 62.701 29.3695 63.3139 30.2709C64.8246 32.4929 65.3072 34.5732 65.3597 35.3357C65.4121 36.5338 65.1708 39.4202 63.786 41.3808C62.4011 43.3413 59.8518 44.5939 58.7502 44.9752C57.806 45.1385 55.5399 45.3019 54.0291 44.6484C52.5184 43.9949 51.0916 42.9601 50.567 42.5244C49.99 41.9798 48.7415 40.4332 48.3638 38.6033C47.9861 36.7734 47.8917 36.0981 47.8917 35.9892C47.7868 37.024 47.3881 39.3875 46.6328 40.5639C45.8774 41.7402 44.6394 43.0146 44.1149 43.5047C42.1215 44.8118 37.1907 46.5109 33.4138 42.8512C29.637 39.1915 30.2664 34.6822 31.0533 32.885C31.2631 31.9592 32.2178 29.8134 34.358 28.6371C34.9235 28.3263 35.2854 28.1341 35.5156 28.0195C34.721 28.0648 34.0065 27.9418 32.3122 27.3315C28.2266 25.8596 28.5383 20.6603 27.9148 18.4366C28.2266 18.0389 29.156 19.3913 29.7855 21.6133C30.415 23.8353 31.6562 24.7901 32.2798 25.1077C33.2765 25.2711 35.9317 25.6962 38.1349 25.8596C40.3952 26.0272 42.5936 27.2211 43.6428 27.6568C44.6394 28.2559 46.9475 30.5976 47.8917 31.9047Z" fill="#00ECDC"/>
<ellipse cx="39.7786" cy="33.4014" rx="3.48934" ry="3.44697" fill="#303031"/>
<ellipse cx="57.923" cy="33.4014" rx="3.48934" ry="3.44697" fill="#303031"/>
<path d="M113.356 13.37C112.124 13.37 111.074 13.202 110.206 12.866C109.347 12.53 108.689 12.0447 108.232 11.41C107.775 10.766 107.546 9.99133 107.546 9.086C107.546 8.162 107.775 7.38267 108.232 6.748C108.689 6.11333 109.347 5.628 110.206 5.292C111.074 4.956 112.124 4.788 113.356 4.788C113.375 4.788 113.417 4.788 113.482 4.788C113.557 4.788 113.627 4.788 113.692 4.788C113.767 4.788 113.809 4.788 113.818 4.788C115.041 4.788 116.081 4.956 116.94 5.292C117.799 5.628 118.452 6.118 118.9 6.762C119.348 7.39667 119.572 8.17133 119.572 9.086C119.572 9.982 119.348 10.752 118.9 11.396C118.461 12.04 117.817 12.53 116.968 12.866C116.128 13.202 115.101 13.37 113.888 13.37C113.869 13.37 113.818 13.37 113.734 13.37C113.659 13.37 113.58 13.37 113.496 13.37C113.421 13.37 113.375 13.37 113.356 13.37ZM113.538 11.956C113.557 11.956 113.585 11.956 113.622 11.956C113.659 11.956 113.683 11.956 113.692 11.956C114.597 11.9467 115.353 11.8347 115.96 11.62C116.576 11.4053 117.038 11.088 117.346 10.668C117.663 10.2387 117.822 9.70667 117.822 9.072C117.822 8.43733 117.663 7.91 117.346 7.49C117.029 7.07 116.567 6.75267 115.96 6.538C115.353 6.32333 114.607 6.216 113.72 6.216C113.711 6.216 113.683 6.216 113.636 6.216C113.589 6.216 113.557 6.216 113.538 6.216C112.614 6.216 111.835 6.32333 111.2 6.538C110.575 6.74333 110.103 7.06067 109.786 7.49C109.478 7.91 109.324 8.442 109.324 9.086C109.324 9.73 109.487 10.2667 109.814 10.696C110.15 11.116 110.631 11.4333 111.256 11.648C111.881 11.8533 112.642 11.956 113.538 11.956ZM112.726 14.392V3.808H114.406V14.392H112.726ZM123.163 8.274H128.035V9.772H123.163V8.274ZM123.303 12.474H128.833V14H121.483V4.2H128.637V5.726H123.303V12.474ZM135.412 14.14C134.647 14.14 133.942 14.014 133.298 13.762C132.654 13.51 132.094 13.16 131.618 12.712C131.142 12.2547 130.774 11.7227 130.512 11.116C130.251 10.5 130.12 9.828 130.12 9.1C130.12 8.372 130.251 7.70467 130.512 7.098C130.774 6.482 131.142 5.95 131.618 5.502C132.094 5.04467 132.654 4.69 133.298 4.438C133.942 4.186 134.642 4.06 135.398 4.06C136.164 4.06 136.864 4.186 137.498 4.438C138.142 4.69 138.702 5.04467 139.178 5.502C139.654 5.95 140.023 6.482 140.284 7.098C140.546 7.70467 140.676 8.372 140.676 9.1C140.676 9.828 140.546 10.5 140.284 11.116C140.023 11.732 139.654 12.264 139.178 12.712C138.702 13.16 138.142 13.51 137.498 13.762C136.864 14.014 136.168 14.14 135.412 14.14ZM135.398 12.544C135.893 12.544 136.35 12.46 136.77 12.292C137.19 12.124 137.554 11.886 137.862 11.578C138.17 11.2607 138.408 10.8967 138.576 10.486C138.754 10.066 138.842 9.604 138.842 9.1C138.842 8.596 138.754 8.13867 138.576 7.728C138.408 7.308 138.17 6.944 137.862 6.636C137.554 6.31867 137.19 6.076 136.77 5.908C136.35 5.74 135.893 5.656 135.398 5.656C134.904 5.656 134.446 5.74 134.026 5.908C133.616 6.076 133.252 6.31867 132.934 6.636C132.626 6.944 132.384 7.308 132.206 7.728C132.038 8.13867 131.954 8.596 131.954 9.1C131.954 9.59467 132.038 10.052 132.206 10.472C132.384 10.892 132.626 11.2607 132.934 11.578C133.242 11.886 133.606 12.124 134.026 12.292C134.446 12.46 134.904 12.544 135.398 12.544ZM148.925 13.16V5.74H145.089L145.019 7.476C144.991 8.12933 144.949 8.75 144.893 9.338C144.846 9.91667 144.767 10.444 144.655 10.92C144.552 11.396 144.408 11.7927 144.221 12.11C144.034 12.4273 143.806 12.6373 143.535 12.74L141.575 12.46C141.93 12.4787 142.219 12.3573 142.443 12.096C142.676 11.8347 142.858 11.4707 142.989 11.004C143.12 10.5373 143.218 9.99133 143.283 9.366C143.348 8.73133 143.395 8.04533 143.423 7.308L143.535 4.2H150.717V13.16H148.925ZM141.239 16.086L141.253 12.46H152.131V16.086H150.451V14H142.933V16.086H141.239ZM158.395 14.14C157.629 14.14 156.925 14.014 156.281 13.762C155.637 13.51 155.077 13.16 154.601 12.712C154.125 12.2547 153.756 11.7227 153.495 11.116C153.233 10.5 153.103 9.828 153.103 9.1C153.103 8.372 153.233 7.70467 153.495 7.098C153.756 6.482 154.125 5.95 154.601 5.502C155.077 5.04467 155.637 4.69 156.281 4.438C156.925 4.186 157.625 4.06 158.381 4.06C159.146 4.06 159.846 4.186 160.481 4.438C161.125 4.69 161.685 5.04467 162.161 5.502C162.637 5.95 163.005 6.482 163.267 7.098C163.528 7.70467 163.659 8.372 163.659 9.1C163.659 9.828 163.528 10.5 163.267 11.116C163.005 11.732 162.637 12.264 162.161 12.712C161.685 13.16 161.125 13.51 160.481 13.762C159.846 14.014 159.151 14.14 158.395 14.14ZM158.381 12.544C158.875 12.544 159.333 12.46 159.753 12.292C160.173 12.124 160.537 11.886 160.845 11.578C161.153 11.2607 161.391 10.8967 161.559 10.486C161.736 10.066 161.825 9.604 161.825 9.1C161.825 8.596 161.736 8.13867 161.559 7.728C161.391 7.308 161.153 6.944 160.845 6.636C160.537 6.31867 160.173 6.076 159.753 5.908C159.333 5.74 158.875 5.656 158.381 5.656C157.886 5.656 157.429 5.74 157.009 5.908C156.598 6.076 156.234 6.31867 155.917 6.636C155.609 6.944 155.366 7.308 155.189 7.728C155.021 8.13867 154.937 8.596 154.937 9.1C154.937 9.59467 155.021 10.052 155.189 10.472C155.366 10.892 155.609 11.2607 155.917 11.578C156.225 11.886 156.589 12.124 157.009 12.292C157.429 12.46 157.886 12.544 158.381 12.544ZM170.179 14.14C169.432 14.14 168.737 14.0187 168.093 13.776C167.458 13.524 166.903 13.174 166.427 12.726C165.96 12.2687 165.596 11.732 165.335 11.116C165.073 10.5 164.943 9.828 164.943 9.1C164.943 8.372 165.073 7.7 165.335 7.084C165.596 6.468 165.965 5.936 166.441 5.488C166.917 5.03067 167.472 4.68067 168.107 4.438C168.741 4.186 169.437 4.06 170.193 4.06C170.995 4.06 171.728 4.2 172.391 4.48C173.053 4.75067 173.613 5.15667 174.071 5.698L172.895 6.804C172.54 6.42133 172.143 6.13667 171.705 5.95C171.266 5.754 170.79 5.656 170.277 5.656C169.763 5.656 169.292 5.74 168.863 5.908C168.443 6.076 168.074 6.314 167.757 6.622C167.449 6.93 167.206 7.294 167.029 7.714C166.861 8.134 166.777 8.596 166.777 9.1C166.777 9.604 166.861 10.066 167.029 10.486C167.206 10.906 167.449 11.27 167.757 11.578C168.074 11.886 168.443 12.124 168.863 12.292C169.292 12.46 169.763 12.544 170.277 12.544C170.79 12.544 171.266 12.4507 171.705 12.264C172.143 12.068 172.54 11.774 172.895 11.382L174.071 12.502C173.613 13.034 173.053 13.44 172.391 13.72C171.728 14 170.991 14.14 170.179 14.14ZM175.775 14V4.2H177.567V11.158L182.831 4.2H184.525V14H182.733V7.056L177.469 14H175.775ZM187.286 14V4.2H189.078V11.158L194.342 4.2H196.036V14H194.244V7.056L188.98 14H187.286ZM191.64 3.542C190.8 3.542 190.166 3.36467 189.736 3.01C189.316 2.65533 189.102 2.156 189.092 1.512H190.366C190.376 1.85733 190.488 2.12333 190.702 2.31C190.926 2.49667 191.239 2.59 191.64 2.59C192.042 2.59 192.354 2.49667 192.578 2.31C192.812 2.12333 192.933 1.85733 192.942 1.512H194.202C194.193 2.156 193.974 2.65533 193.544 3.01C193.115 3.36467 192.48 3.542 191.64 3.542ZM203.292 14.14C202.545 14.14 201.85 14.0187 201.206 13.776C200.571 13.524 200.016 13.174 199.54 12.726C199.073 12.2687 198.709 11.732 198.448 11.116C198.187 10.5 198.056 9.828 198.056 9.1C198.056 8.372 198.187 7.7 198.448 7.084C198.709 6.468 199.078 5.936 199.554 5.488C200.03 5.03067 200.585 4.68067 201.22 4.438C201.855 4.186 202.55 4.06 203.306 4.06C204.109 4.06 204.841 4.2 205.504 4.48C206.167 4.75067 206.727 5.15667 207.184 5.698L206.008 6.804C205.653 6.42133 205.257 6.13667 204.818 5.95C204.379 5.754 203.903 5.656 203.39 5.656C202.877 5.656 202.405 5.74 201.976 5.908C201.556 6.076 201.187 6.314 200.87 6.622C200.562 6.93 200.319 7.294 200.142 7.714C199.974 8.134 199.89 8.596 199.89 9.1C199.89 9.604 199.974 10.066 200.142 10.486C200.319 10.906 200.562 11.27 200.87 11.578C201.187 11.886 201.556 12.124 201.976 12.292C202.405 12.46 202.877 12.544 203.39 12.544C203.903 12.544 204.379 12.4507 204.818 12.264C205.257 12.068 205.653 11.774 206.008 11.382L207.184 12.502C206.727 13.034 206.167 13.44 205.504 13.72C204.841 14 204.104 14.14 203.292 14.14ZM215.356 14L212.038 9.226L213.508 8.316L217.414 14H215.356ZM208.874 14V4.2H210.666V14H208.874ZM210.12 9.87V8.302H213.424V9.87H210.12ZM213.676 9.31L212.01 9.086L215.356 4.2H217.288L213.676 9.31ZM218.663 14V4.2H220.455V11.158L225.719 4.2H227.413V14H225.621V7.056L220.357 14H218.663ZM230.175 14V4.2H231.967V11.158L237.231 4.2H238.925V14H237.133V7.056L231.869 14H230.175ZM234.529 3.542C233.689 3.542 233.054 3.36467 232.625 3.01C232.205 2.65533 231.99 2.156 231.981 1.512H233.255C233.264 1.85733 233.376 2.12333 233.591 2.31C233.815 2.49667 234.128 2.59 234.529 2.59C234.93 2.59 235.243 2.49667 235.467 2.31C235.7 2.12333 235.822 1.85733 235.831 1.512H237.091C237.082 2.156 236.862 2.65533 236.433 3.01C236.004 3.36467 235.369 3.542 234.529 3.542ZM108.526 31V21.2H116.968V31H115.596V22.054L115.932 22.418H109.562L109.912 22.054V31H108.526ZM124.434 31.112C123.687 31.112 122.992 30.986 122.348 30.734C121.713 30.482 121.163 30.132 120.696 29.684C120.229 29.2267 119.865 28.6947 119.604 28.088C119.343 27.4813 119.212 26.8187 119.212 26.1C119.212 25.3813 119.343 24.7187 119.604 24.112C119.865 23.5053 120.229 22.978 120.696 22.53C121.163 22.0727 121.713 21.718 122.348 21.466C122.983 21.214 123.678 21.088 124.434 21.088C125.181 21.088 125.867 21.214 126.492 21.466C127.127 21.7087 127.677 22.0587 128.144 22.516C128.62 22.964 128.984 23.4913 129.236 24.098C129.497 24.7047 129.628 25.372 129.628 26.1C129.628 26.828 129.497 27.4953 129.236 28.102C128.984 28.7087 128.62 29.2407 128.144 29.698C127.677 30.146 127.127 30.496 126.492 30.748C125.867 30.9907 125.181 31.112 124.434 31.112ZM124.434 29.866C124.975 29.866 125.475 29.7727 125.932 29.586C126.399 29.3993 126.8 29.138 127.136 28.802C127.481 28.4567 127.747 28.0553 127.934 27.598C128.13 27.1407 128.228 26.6413 128.228 26.1C128.228 25.5587 128.13 25.0593 127.934 24.602C127.747 24.1447 127.481 23.748 127.136 23.412C126.8 23.0667 126.399 22.8007 125.932 22.614C125.475 22.4273 124.975 22.334 124.434 22.334C123.883 22.334 123.375 22.4273 122.908 22.614C122.451 22.8007 122.049 23.0667 121.704 23.412C121.359 23.748 121.088 24.1447 120.892 24.602C120.705 25.0593 120.612 25.5587 120.612 26.1C120.612 26.6413 120.705 27.1407 120.892 27.598C121.088 28.0553 121.359 28.4567 121.704 28.802C122.049 29.138 122.451 29.3993 122.908 29.586C123.375 29.7727 123.883 29.866 124.434 29.866ZM131.156 31.112C131.016 31.112 130.876 31.1027 130.736 31.084C130.596 31.0653 130.442 31.0373 130.274 31L130.372 29.754C130.521 29.7913 130.67 29.81 130.82 29.81C131.23 29.81 131.557 29.6467 131.8 29.32C132.042 28.9933 132.22 28.4987 132.332 27.836C132.453 27.1733 132.532 26.338 132.57 25.33L132.724 21.2H139.626V31H138.254V22.054L138.59 22.418H133.62L133.928 22.04L133.816 25.288C133.788 26.2587 133.722 27.108 133.62 27.836C133.517 28.564 133.363 29.1707 133.158 29.656C132.952 30.1413 132.686 30.5053 132.36 30.748C132.042 30.9907 131.641 31.112 131.156 31.112ZM142.678 31V21.2H144.064V28.76L149.86 21.2H151.148V31H149.776V23.454L143.966 31H142.678ZM156.206 31V22.054L156.556 22.418H152.86V21.2H160.938V22.418H157.242L157.578 22.054V31H156.206ZM163.913 25.428H168.953V26.618H163.913V25.428ZM164.039 29.782H169.751V31H162.639V21.2H169.555V22.418H164.039V29.782ZM170.79 21.2H172.4L174.962 24.784L177.524 21.2H179.162L175.844 25.904L179.428 31H177.776L174.962 27.094L172.162 31H170.552L174.122 25.96L170.79 21.2ZM187.892 21.2H189.292V31H187.892V21.2ZM182.264 31H180.864V21.2H182.264V31ZM188.018 26.632H182.124V25.414H188.018V26.632ZM192.348 31V21.2H193.734V28.76L199.53 21.2H200.818V31H199.446V23.454L193.636 31H192.348ZM209.704 27.024C209.154 27.2573 208.617 27.4347 208.094 27.556C207.581 27.668 207.082 27.724 206.596 27.724C205.402 27.724 204.473 27.4347 203.81 26.856C203.157 26.2773 202.83 25.4513 202.83 24.378V21.2H204.202V24.224C204.202 24.952 204.426 25.512 204.874 25.904C205.322 26.296 205.948 26.492 206.75 26.492C207.226 26.492 207.712 26.4313 208.206 26.31C208.71 26.1887 209.2 26.0113 209.676 25.778L209.704 27.024ZM209.466 31V21.2H210.852V31H209.466ZM215.183 25.428H220.223V26.618H215.183V25.428ZM215.309 29.782H221.021V31H213.909V21.2H220.825V22.418H215.309V29.782ZM227.588 31.112C226.841 31.112 226.15 30.9907 225.516 30.748C224.89 30.496 224.344 30.146 223.878 29.698C223.42 29.2407 223.061 28.7087 222.8 28.102C222.538 27.4953 222.408 26.828 222.408 26.1C222.408 25.372 222.538 24.7047 222.8 24.098C223.061 23.4913 223.425 22.964 223.892 22.516C224.358 22.0587 224.904 21.7087 225.53 21.466C226.164 21.214 226.855 21.088 227.602 21.088C228.358 21.088 229.053 21.2187 229.688 21.48C230.332 21.732 230.878 22.11 231.326 22.614L230.416 23.496C230.042 23.104 229.622 22.8147 229.156 22.628C228.689 22.432 228.19 22.334 227.658 22.334C227.107 22.334 226.594 22.4273 226.118 22.614C225.651 22.8007 225.245 23.062 224.9 23.398C224.554 23.734 224.284 24.1353 224.088 24.602C223.901 25.0593 223.808 25.5587 223.808 26.1C223.808 26.6413 223.901 27.1453 224.088 27.612C224.284 28.0693 224.554 28.466 224.9 28.802C225.245 29.138 225.651 29.3993 226.118 29.586C226.594 29.7727 227.107 29.866 227.658 29.866C228.19 29.866 228.689 29.7727 229.156 29.586C229.622 29.39 230.042 29.0913 230.416 28.69L231.326 29.572C230.878 30.076 230.332 30.4587 229.688 30.72C229.053 30.9813 228.353 31.112 227.588 31.112ZM239.849 31L236.293 26.17L237.427 25.47L241.445 31H239.849ZM233.255 31V21.2H234.627V31H233.255ZM234.207 26.688V25.456H237.385V26.688H234.207ZM237.553 26.254L236.265 26.058L239.779 21.2H241.277L237.553 26.254ZM242.88 31V21.2H244.266V28.76L250.062 21.2H251.35V31H249.978V23.454L244.168 31H242.88ZM254.405 31V21.2H255.791V28.76L261.587 21.2H262.875V31H261.503V23.454L255.693 31H254.405ZM258.619 20.514C257.854 20.514 257.261 20.346 256.841 20.01C256.43 19.674 256.22 19.2027 256.211 18.596H257.205C257.214 18.96 257.345 19.2447 257.597 19.45C257.849 19.646 258.19 19.744 258.619 19.744C259.039 19.744 259.375 19.646 259.627 19.45C259.888 19.2447 260.024 18.96 260.033 18.596H261.013C261.004 19.2027 260.789 19.674 260.369 20.01C259.958 20.346 259.375 20.514 258.619 20.514ZM110.528 48V39.054L110.878 39.418H107.182V38.2H115.26V39.418H111.564L111.9 39.054V48H110.528ZM118.236 42.428H123.276V43.618H118.236V42.428ZM118.362 46.782H124.074V48H116.962V38.2H123.878V39.418H118.362V46.782ZM125.113 38.2H126.723L129.285 41.784L131.847 38.2H133.485L130.167 42.904L133.751 48H132.099L129.285 44.094L126.485 48H124.875L128.445 42.96L125.113 38.2ZM142.214 38.2H143.614V48H142.214V38.2ZM136.586 48H135.186V38.2H136.586V48ZM142.34 43.632H136.446V42.414H142.34V43.632ZM146.671 48V38.2H148.057V45.76L153.853 38.2H155.141V48H153.769V40.454L147.959 48H146.671ZM164.79 48L161.234 43.17L162.368 42.47L166.386 48H164.79ZM158.196 48V38.2H159.568V48H158.196ZM159.148 43.688V42.456H162.326V43.688H159.148ZM162.494 43.254L161.206 43.058L164.72 38.2H166.218L162.494 43.254ZM167.848 46.768C168.333 46.9453 168.781 46.992 169.192 46.908C169.602 46.8147 169.971 46.502 170.298 45.97L170.774 45.214L170.914 45.06L174.512 38.2H175.898L171.544 46.264C171.217 46.88 170.834 47.3467 170.396 47.664C169.966 47.972 169.5 48.14 168.996 48.168C168.501 48.2053 167.997 48.112 167.484 47.888L167.848 46.768ZM170.872 46.306L166.574 38.2H168.072L171.642 45.186L170.872 46.306ZM177.35 48V38.2H178.498L182.894 45.606H182.278L186.618 38.2H187.766L187.78 48H186.436L186.422 40.314H186.744L182.88 46.81H182.236L178.344 40.314H178.694V48H177.35ZM109.784 87V64.6H119.48C121.485 64.6 123.213 64.9307 124.664 65.592C126.115 66.232 127.235 67.16 128.024 68.376C128.813 69.592 129.208 71.0427 129.208 72.728C129.208 74.392 128.813 75.832 128.024 77.048C127.235 78.264 126.115 79.2027 124.664 79.864C123.213 80.504 121.485 80.824 119.48 80.824H112.664L114.968 78.488V87H109.784ZM114.968 79.064L112.664 76.6H119.192C120.792 76.6 121.987 76.2587 122.776 75.576C123.565 74.8933 123.96 73.944 123.96 72.728C123.96 71.4907 123.565 70.5307 122.776 69.848C121.987 69.1653 120.792 68.824 119.192 68.824H112.664L114.968 66.36V79.064ZM137.396 73.624H148.18V77.656H137.396V73.624ZM137.78 82.84H149.972V87H132.628V64.6H149.556V68.76H137.78V82.84ZM154.159 87V64.6H159.311V79.192L169.999 64.6H174.863V87H169.743V72.44L159.055 87H154.159ZM164.495 63.16C162.362 63.16 160.794 62.7333 159.791 61.88C158.81 61.0267 158.308 59.8213 158.287 58.264H161.839C161.86 59.032 162.084 59.6187 162.511 60.024C162.959 60.408 163.62 60.6 164.495 60.6C165.348 60.6 165.999 60.408 166.447 60.024C166.895 59.6187 167.13 59.032 167.151 58.264H170.703C170.682 59.8213 170.17 61.0267 169.167 61.88C168.164 62.7333 166.607 63.16 164.495 63.16ZM185.272 87V67.64L186.456 68.824H178.136V64.6H197.56V68.824H189.24L190.392 67.64V87H185.272ZM200.815 87V64.6H205.967V79.192L216.655 64.6H221.519V87H216.399V72.44L205.711 87H200.815ZM242.457 64.6H247.641V87H242.457V64.6ZM232.281 87H227.097V64.6H232.281V87ZM242.841 77.816H231.897V73.432H242.841V77.816ZM253.253 87V64.6H269.061L269.029 68.824H257.189L258.373 67.64L258.405 87H253.253Z" fill="#00ECDC"/>
</svg>
