<svg width="359" height="92" viewBox="0 0 359 92" fill="none" xmlns="http://www.w3.org/2000/svg">
<path d="M94.9101 46.5C94.9101 71.6289 73.6637 92 47.455 92C21.2463 92 0 71.6289 0 46.5C0 21.371 21.2463 1 47.455 1C73.6637 1 94.9101 21.371 94.9101 46.5Z" fill="#00ECDC"/>
<path d="M33.9912 23.8748C31.7406 23.8748 29.8142 18.1713 28.0651 17.5049C26.1854 16.003 26.4277 16.1785 25.8009 16.003C24.5478 15.6521 25.2456 17.0841 26.1854 26.5164C26.293 27.5965 24.1855 37.1241 25.8009 40.8066C27.3974 44.4461 29.4672 46.437 30.9188 47.8161C29.051 51.6715 25.6082 60.7428 26.9947 66.4723C28.7438 73.7 37.4894 90.0008 52.1185 91.9999C53.8676 91.9999 63.0902 91.5312 73.744 84.7648C74.433 80.9715 75.5885 70.8089 75.3341 65.3958C75.0827 60.0469 69.7388 51.4547 67.0039 47.6907C70.7139 41.0097 70.204 35.8964 69.731 31.3225C68.7273 21.6155 70.7487 14.4324 69.731 14.8014C68.7134 15.1705 63.5672 21.0041 63.4082 21.2604C62.2952 22.2343 61.2086 23.6529 57.6838 23.2595C53.5496 22.7982 50.8819 22.952 46.8711 22.952C41.9417 22.952 35.8993 23.8748 33.9912 23.8748Z" fill="#303031"/>
<path d="M39.0806 44.9489C41.37 44.9489 43.0971 44.1446 43.5991 43.7424C46.6115 46.1553 47.6658 48.3671 47.8165 49.1714C47.9203 48.3901 48.9695 46.12 52.335 43.8932C53.0881 44.2954 54.7751 45.0695 56.1005 44.9489C54.2931 46.4569 52.0338 49.6238 51.7326 52.1875C51.4651 54.464 51.2807 60.331 51.7326 63.4979C52.5359 67.5193 56.8837 87.5965 60.0166 89.8887C58.4502 90.6126 53.9918 91.5979 51.8832 92C48.8708 87.9283 44.7037 62.9449 44.8041 58.9737C44.8041 57.2143 44.3221 54.0273 43.5991 51.7351C42.8762 49.4429 40.637 45.904 39.0806 44.9489Z" fill="#00ECDC"/>
<path d="M47.8915 31.9047C49.0456 30.2709 52.0146 26.8072 55.9173 26.6765C60.7957 26.5131 63.9431 25.6962 64.73 25.0427C65.6161 24.3067 66.273 23.4928 67.8233 18.7542C69.0705 14.9421 67.9866 21.0323 67.1997 24.7901C66.9375 25.4981 66.5762 26.0608 64.73 27.0138C62.8838 27.9668 62.8406 28.1211 62.2111 28.2845L62.1548 28.3419C62.3525 28.7158 62.7008 29.3695 63.3137 30.2709C64.8244 32.4929 65.307 34.5732 65.3594 35.3357C65.4119 36.5338 65.1706 39.4202 63.7858 41.3808C62.4009 43.3413 59.8515 44.5939 58.75 44.9752C57.8057 45.1385 55.5396 45.3019 54.0289 44.6484C52.5182 43.9949 51.0913 42.9601 50.5668 42.5244C49.9898 41.9798 48.7413 40.4332 48.3636 38.6033C47.9859 36.7734 47.8915 36.0981 47.8915 35.9892C47.7866 37.024 47.3879 39.3875 46.6326 40.5639C45.8772 41.7402 44.6392 43.0146 44.1147 43.5047C42.1213 44.8118 37.1904 46.5109 33.4136 42.8512C29.6367 39.1915 30.2662 34.6822 31.0531 32.885C31.2629 31.9592 32.2176 29.8134 34.3578 28.6371C34.9233 28.3263 35.2852 28.1341 35.5154 28.0195C34.7208 28.0648 34.0063 27.9418 32.312 27.3315C28.2263 25.8596 28.5381 20.6603 27.9146 18.4366C28.2263 18.0389 29.1558 19.3913 29.7853 21.6133C30.4147 23.8353 31.656 24.7901 32.2796 25.1077C33.2762 25.2711 35.9315 25.6962 38.1347 25.8596C40.395 26.0272 42.5934 27.2211 43.6426 27.6568C44.6392 28.2559 46.9473 30.5976 47.8915 31.9047Z" fill="#00ECDC"/>
<ellipse cx="39.7784" cy="33.4014" rx="3.48934" ry="3.44697" fill="#303031"/>
<ellipse cx="57.9229" cy="33.4014" rx="3.48934" ry="3.44697" fill="#303031"/>
<path d="M109.784 31V8.6H119.48C121.485 8.6 123.213 8.93067 124.664 9.592C126.115 10.232 127.235 11.16 128.024 12.376C128.813 13.592 129.208 15.0427 129.208 16.728C129.208 18.392 128.813 19.832 128.024 21.048C127.235 22.264 126.115 23.2027 124.664 23.864C123.213 24.504 121.485 24.824 119.48 24.824H112.664L114.968 22.488V31H109.784ZM114.968 23.064L112.664 20.6H119.192C120.792 20.6 121.987 20.2587 122.776 19.576C123.565 18.8933 123.96 17.944 123.96 16.728C123.96 15.4907 123.565 14.5307 122.776 13.848C121.987 13.1653 120.792 12.824 119.192 12.824H112.664L114.968 10.36V23.064ZM137.396 17.624H148.18V21.656H137.396V17.624ZM137.78 26.84H149.972V31H132.628V8.6H149.556V12.76H137.78V26.84ZM154.159 31V8.6H159.311V23.192L169.999 8.6H174.863V31H169.743V16.44L159.055 31H154.159ZM164.495 7.16C162.362 7.16 160.794 6.73333 159.791 5.88C158.81 5.02667 158.308 3.82133 158.287 2.264H161.839C161.86 3.032 162.084 3.61867 162.511 4.024C162.959 4.408 163.62 4.6 164.495 4.6C165.348 4.6 165.999 4.408 166.447 4.024C166.895 3.61867 167.13 3.032 167.151 2.264H170.703C170.682 3.82133 170.17 5.02667 169.167 5.88C168.164 6.73333 166.607 7.16 164.495 7.16ZM185.272 31V11.64L186.456 12.824H178.136V8.6H197.56V12.824H189.24L190.392 11.64V31H185.272ZM200.815 31V8.6H205.967V23.192L216.655 8.6H221.519V31H216.399V16.44L205.711 31H200.815ZM242.457 8.6H247.641V31H242.457V8.6ZM232.281 31H227.097V8.6H232.281V31ZM242.841 21.816H231.897V17.432H242.841V21.816ZM253.253 31V8.6H269.061L269.029 12.824H257.189L258.373 11.64L258.405 31H253.253ZM113.356 47.37C112.124 47.37 111.074 47.202 110.206 46.866C109.347 46.53 108.689 46.0447 108.232 45.41C107.775 44.766 107.546 43.9913 107.546 43.086C107.546 42.162 107.775 41.3827 108.232 40.748C108.689 40.1133 109.347 39.628 110.206 39.292C111.074 38.956 112.124 38.788 113.356 38.788C113.375 38.788 113.417 38.788 113.482 38.788C113.557 38.788 113.627 38.788 113.692 38.788C113.767 38.788 113.809 38.788 113.818 38.788C115.041 38.788 116.081 38.956 116.94 39.292C117.799 39.628 118.452 40.118 118.9 40.762C119.348 41.3967 119.572 42.1713 119.572 43.086C119.572 43.982 119.348 44.752 118.9 45.396C118.461 46.04 117.817 46.53 116.968 46.866C116.128 47.202 115.101 47.37 113.888 47.37C113.869 47.37 113.818 47.37 113.734 47.37C113.659 47.37 113.58 47.37 113.496 47.37C113.421 47.37 113.375 47.37 113.356 47.37ZM113.538 45.956C113.557 45.956 113.585 45.956 113.622 45.956C113.659 45.956 113.683 45.956 113.692 45.956C114.597 45.9467 115.353 45.8347 115.96 45.62C116.576 45.4053 117.038 45.088 117.346 44.668C117.663 44.2387 117.822 43.7067 117.822 43.072C117.822 42.4373 117.663 41.91 117.346 41.49C117.029 41.07 116.567 40.7527 115.96 40.538C115.353 40.3233 114.607 40.216 113.72 40.216C113.711 40.216 113.683 40.216 113.636 40.216C113.589 40.216 113.557 40.216 113.538 40.216C112.614 40.216 111.835 40.3233 111.2 40.538C110.575 40.7433 110.103 41.0607 109.786 41.49C109.478 41.91 109.324 42.442 109.324 43.086C109.324 43.73 109.487 44.2667 109.814 44.696C110.15 45.116 110.631 45.4333 111.256 45.648C111.881 45.8533 112.642 45.956 113.538 45.956ZM112.726 48.392V37.808H114.406V48.392H112.726ZM123.163 42.274H128.035V43.772H123.163V42.274ZM123.303 46.474H128.833V48H121.483V38.2H128.637V39.726H123.303V46.474ZM135.412 48.14C134.647 48.14 133.942 48.014 133.298 47.762C132.654 47.51 132.094 47.16 131.618 46.712C131.142 46.2547 130.774 45.7227 130.512 45.116C130.251 44.5 130.12 43.828 130.12 43.1C130.12 42.372 130.251 41.7047 130.512 41.098C130.774 40.482 131.142 39.95 131.618 39.502C132.094 39.0447 132.654 38.69 133.298 38.438C133.942 38.186 134.642 38.06 135.398 38.06C136.164 38.06 136.864 38.186 137.498 38.438C138.142 38.69 138.702 39.0447 139.178 39.502C139.654 39.95 140.023 40.482 140.284 41.098C140.546 41.7047 140.676 42.372 140.676 43.1C140.676 43.828 140.546 44.5 140.284 45.116C140.023 45.732 139.654 46.264 139.178 46.712C138.702 47.16 138.142 47.51 137.498 47.762C136.864 48.014 136.168 48.14 135.412 48.14ZM135.398 46.544C135.893 46.544 136.35 46.46 136.77 46.292C137.19 46.124 137.554 45.886 137.862 45.578C138.17 45.2607 138.408 44.8967 138.576 44.486C138.754 44.066 138.842 43.604 138.842 43.1C138.842 42.596 138.754 42.1387 138.576 41.728C138.408 41.308 138.17 40.944 137.862 40.636C137.554 40.3187 137.19 40.076 136.77 39.908C136.35 39.74 135.893 39.656 135.398 39.656C134.904 39.656 134.446 39.74 134.026 39.908C133.616 40.076 133.252 40.3187 132.934 40.636C132.626 40.944 132.384 41.308 132.206 41.728C132.038 42.1387 131.954 42.596 131.954 43.1C131.954 43.5947 132.038 44.052 132.206 44.472C132.384 44.892 132.626 45.2607 132.934 45.578C133.242 45.886 133.606 46.124 134.026 46.292C134.446 46.46 134.904 46.544 135.398 46.544ZM148.925 47.16V39.74H145.089L145.019 41.476C144.991 42.1293 144.949 42.75 144.893 43.338C144.846 43.9167 144.767 44.444 144.655 44.92C144.552 45.396 144.408 45.7927 144.221 46.11C144.034 46.4273 143.806 46.6373 143.535 46.74L141.575 46.46C141.93 46.4787 142.219 46.3573 142.443 46.096C142.676 45.8347 142.858 45.4707 142.989 45.004C143.12 44.5373 143.218 43.9913 143.283 43.366C143.348 42.7313 143.395 42.0453 143.423 41.308L143.535 38.2H150.717V47.16H148.925ZM141.239 50.086L141.253 46.46H152.131V50.086H150.451V48H142.933V50.086H141.239ZM158.395 48.14C157.629 48.14 156.925 48.014 156.281 47.762C155.637 47.51 155.077 47.16 154.601 46.712C154.125 46.2547 153.756 45.7227 153.495 45.116C153.233 44.5 153.103 43.828 153.103 43.1C153.103 42.372 153.233 41.7047 153.495 41.098C153.756 40.482 154.125 39.95 154.601 39.502C155.077 39.0447 155.637 38.69 156.281 38.438C156.925 38.186 157.625 38.06 158.381 38.06C159.146 38.06 159.846 38.186 160.481 38.438C161.125 38.69 161.685 39.0447 162.161 39.502C162.637 39.95 163.005 40.482 163.267 41.098C163.528 41.7047 163.659 42.372 163.659 43.1C163.659 43.828 163.528 44.5 163.267 45.116C163.005 45.732 162.637 46.264 162.161 46.712C161.685 47.16 161.125 47.51 160.481 47.762C159.846 48.014 159.151 48.14 158.395 48.14ZM158.381 46.544C158.875 46.544 159.333 46.46 159.753 46.292C160.173 46.124 160.537 45.886 160.845 45.578C161.153 45.2607 161.391 44.8967 161.559 44.486C161.736 44.066 161.825 43.604 161.825 43.1C161.825 42.596 161.736 42.1387 161.559 41.728C161.391 41.308 161.153 40.944 160.845 40.636C160.537 40.3187 160.173 40.076 159.753 39.908C159.333 39.74 158.875 39.656 158.381 39.656C157.886 39.656 157.429 39.74 157.009 39.908C156.598 40.076 156.234 40.3187 155.917 40.636C155.609 40.944 155.366 41.308 155.189 41.728C155.021 42.1387 154.937 42.596 154.937 43.1C154.937 43.5947 155.021 44.052 155.189 44.472C155.366 44.892 155.609 45.2607 155.917 45.578C156.225 45.886 156.589 46.124 157.009 46.292C157.429 46.46 157.886 46.544 158.381 46.544ZM170.179 48.14C169.432 48.14 168.737 48.0187 168.093 47.776C167.458 47.524 166.903 47.174 166.427 46.726C165.96 46.2687 165.596 45.732 165.335 45.116C165.073 44.5 164.943 43.828 164.943 43.1C164.943 42.372 165.073 41.7 165.335 41.084C165.596 40.468 165.965 39.936 166.441 39.488C166.917 39.0307 167.472 38.6807 168.107 38.438C168.741 38.186 169.437 38.06 170.193 38.06C170.995 38.06 171.728 38.2 172.391 38.48C173.053 38.7507 173.613 39.1567 174.071 39.698L172.895 40.804C172.54 40.4213 172.143 40.1367 171.705 39.95C171.266 39.754 170.79 39.656 170.277 39.656C169.763 39.656 169.292 39.74 168.863 39.908C168.443 40.076 168.074 40.314 167.757 40.622C167.449 40.93 167.206 41.294 167.029 41.714C166.861 42.134 166.777 42.596 166.777 43.1C166.777 43.604 166.861 44.066 167.029 44.486C167.206 44.906 167.449 45.27 167.757 45.578C168.074 45.886 168.443 46.124 168.863 46.292C169.292 46.46 169.763 46.544 170.277 46.544C170.79 46.544 171.266 46.4507 171.705 46.264C172.143 46.068 172.54 45.774 172.895 45.382L174.071 46.502C173.613 47.034 173.053 47.44 172.391 47.72C171.728 48 170.991 48.14 170.179 48.14ZM175.775 48V38.2H177.567V45.158L182.831 38.2H184.525V48H182.733V41.056L177.469 48H175.775ZM187.286 48V38.2H189.078V45.158L194.342 38.2H196.036V48H194.244V41.056L188.98 48H187.286ZM191.64 37.542C190.8 37.542 190.166 37.3647 189.736 37.01C189.316 36.6553 189.102 36.156 189.092 35.512H190.366C190.376 35.8573 190.488 36.1233 190.702 36.31C190.926 36.4967 191.239 36.59 191.64 36.59C192.042 36.59 192.354 36.4967 192.578 36.31C192.812 36.1233 192.933 35.8573 192.942 35.512H194.202C194.193 36.156 193.974 36.6553 193.544 37.01C193.115 37.3647 192.48 37.542 191.64 37.542ZM203.292 48.14C202.545 48.14 201.85 48.0187 201.206 47.776C200.571 47.524 200.016 47.174 199.54 46.726C199.073 46.2687 198.709 45.732 198.448 45.116C198.187 44.5 198.056 43.828 198.056 43.1C198.056 42.372 198.187 41.7 198.448 41.084C198.709 40.468 199.078 39.936 199.554 39.488C200.03 39.0307 200.585 38.6807 201.22 38.438C201.855 38.186 202.55 38.06 203.306 38.06C204.109 38.06 204.841 38.2 205.504 38.48C206.167 38.7507 206.727 39.1567 207.184 39.698L206.008 40.804C205.653 40.4213 205.257 40.1367 204.818 39.95C204.379 39.754 203.903 39.656 203.39 39.656C202.877 39.656 202.405 39.74 201.976 39.908C201.556 40.076 201.187 40.314 200.87 40.622C200.562 40.93 200.319 41.294 200.142 41.714C199.974 42.134 199.89 42.596 199.89 43.1C199.89 43.604 199.974 44.066 200.142 44.486C200.319 44.906 200.562 45.27 200.87 45.578C201.187 45.886 201.556 46.124 201.976 46.292C202.405 46.46 202.877 46.544 203.39 46.544C203.903 46.544 204.379 46.4507 204.818 46.264C205.257 46.068 205.653 45.774 206.008 45.382L207.184 46.502C206.727 47.034 206.167 47.44 205.504 47.72C204.841 48 204.104 48.14 203.292 48.14ZM215.356 48L212.038 43.226L213.508 42.316L217.414 48H215.356ZM208.874 48V38.2H210.666V48H208.874ZM210.12 43.87V42.302H213.424V43.87H210.12ZM213.676 43.31L212.01 43.086L215.356 38.2H217.288L213.676 43.31ZM218.663 48V38.2H220.455V45.158L225.719 38.2H227.413V48H225.621V41.056L220.357 48H218.663ZM230.175 48V38.2H231.967V45.158L237.231 38.2H238.925V48H237.133V41.056L231.869 48H230.175ZM234.529 37.542C233.689 37.542 233.054 37.3647 232.625 37.01C232.205 36.6553 231.99 36.156 231.981 35.512H233.255C233.264 35.8573 233.376 36.1233 233.591 36.31C233.815 36.4967 234.128 36.59 234.529 36.59C234.93 36.59 235.243 36.4967 235.467 36.31C235.7 36.1233 235.822 35.8573 235.831 35.512H237.091C237.082 36.156 236.862 36.6553 236.433 37.01C236.004 37.3647 235.369 37.542 234.529 37.542ZM108.526 65V55.2H116.968V65H115.596V56.054L115.932 56.418H109.562L109.912 56.054V65H108.526ZM124.434 65.112C123.687 65.112 122.992 64.986 122.348 64.734C121.713 64.482 121.163 64.132 120.696 63.684C120.229 63.2267 119.865 62.6947 119.604 62.088C119.343 61.4813 119.212 60.8187 119.212 60.1C119.212 59.3813 119.343 58.7187 119.604 58.112C119.865 57.5053 120.229 56.978 120.696 56.53C121.163 56.0727 121.713 55.718 122.348 55.466C122.983 55.214 123.678 55.088 124.434 55.088C125.181 55.088 125.867 55.214 126.492 55.466C127.127 55.7087 127.677 56.0587 128.144 56.516C128.62 56.964 128.984 57.4913 129.236 58.098C129.497 58.7047 129.628 59.372 129.628 60.1C129.628 60.828 129.497 61.4953 129.236 62.102C128.984 62.7087 128.62 63.2407 128.144 63.698C127.677 64.146 127.127 64.496 126.492 64.748C125.867 64.9907 125.181 65.112 124.434 65.112ZM124.434 63.866C124.975 63.866 125.475 63.7727 125.932 63.586C126.399 63.3993 126.8 63.138 127.136 62.802C127.481 62.4567 127.747 62.0553 127.934 61.598C128.13 61.1407 128.228 60.6413 128.228 60.1C128.228 59.5587 128.13 59.0593 127.934 58.602C127.747 58.1447 127.481 57.748 127.136 57.412C126.8 57.0667 126.399 56.8007 125.932 56.614C125.475 56.4273 124.975 56.334 124.434 56.334C123.883 56.334 123.375 56.4273 122.908 56.614C122.451 56.8007 122.049 57.0667 121.704 57.412C121.359 57.748 121.088 58.1447 120.892 58.602C120.705 59.0593 120.612 59.5587 120.612 60.1C120.612 60.6413 120.705 61.1407 120.892 61.598C121.088 62.0553 121.359 62.4567 121.704 62.802C122.049 63.138 122.451 63.3993 122.908 63.586C123.375 63.7727 123.883 63.866 124.434 63.866ZM131.156 65.112C131.016 65.112 130.876 65.1027 130.736 65.084C130.596 65.0653 130.442 65.0373 130.274 65L130.372 63.754C130.521 63.7913 130.67 63.81 130.82 63.81C131.23 63.81 131.557 63.6467 131.8 63.32C132.042 62.9933 132.22 62.4987 132.332 61.836C132.453 61.1733 132.532 60.338 132.57 59.33L132.724 55.2H139.626V65H138.254V56.054L138.59 56.418H133.62L133.928 56.04L133.816 59.288C133.788 60.2587 133.722 61.108 133.62 61.836C133.517 62.564 133.363 63.1707 133.158 63.656C132.952 64.1413 132.686 64.5053 132.36 64.748C132.042 64.9907 131.641 65.112 131.156 65.112ZM142.678 65V55.2H144.064V62.76L149.86 55.2H151.148V65H149.776V57.454L143.966 65H142.678ZM156.206 65V56.054L156.556 56.418H152.86V55.2H160.938V56.418H157.242L157.578 56.054V65H156.206ZM163.913 59.428H168.953V60.618H163.913V59.428ZM164.039 63.782H169.751V65H162.639V55.2H169.555V56.418H164.039V63.782ZM170.79 55.2H172.4L174.962 58.784L177.524 55.2H179.162L175.844 59.904L179.428 65H177.776L174.962 61.094L172.162 65H170.552L174.122 59.96L170.79 55.2ZM187.892 55.2H189.292V65H187.892V55.2ZM182.264 65H180.864V55.2H182.264V65ZM188.018 60.632H182.124V59.414H188.018V60.632ZM192.348 65V55.2H193.734V62.76L199.53 55.2H200.818V65H199.446V57.454L193.636 65H192.348ZM209.704 61.024C209.154 61.2573 208.617 61.4347 208.094 61.556C207.581 61.668 207.082 61.724 206.596 61.724C205.402 61.724 204.473 61.4347 203.81 60.856C203.157 60.2773 202.83 59.4513 202.83 58.378V55.2H204.202V58.224C204.202 58.952 204.426 59.512 204.874 59.904C205.322 60.296 205.948 60.492 206.75 60.492C207.226 60.492 207.712 60.4313 208.206 60.31C208.71 60.1887 209.2 60.0113 209.676 59.778L209.704 61.024ZM209.466 65V55.2H210.852V65H209.466ZM215.183 59.428H220.223V60.618H215.183V59.428ZM215.309 63.782H221.021V65H213.909V55.2H220.825V56.418H215.309V63.782ZM227.588 65.112C226.841 65.112 226.15 64.9907 225.516 64.748C224.89 64.496 224.344 64.146 223.878 63.698C223.42 63.2407 223.061 62.7087 222.8 62.102C222.538 61.4953 222.408 60.828 222.408 60.1C222.408 59.372 222.538 58.7047 222.8 58.098C223.061 57.4913 223.425 56.964 223.892 56.516C224.358 56.0587 224.904 55.7087 225.53 55.466C226.164 55.214 226.855 55.088 227.602 55.088C228.358 55.088 229.053 55.2187 229.688 55.48C230.332 55.732 230.878 56.11 231.326 56.614L230.416 57.496C230.042 57.104 229.622 56.8147 229.156 56.628C228.689 56.432 228.19 56.334 227.658 56.334C227.107 56.334 226.594 56.4273 226.118 56.614C225.651 56.8007 225.245 57.062 224.9 57.398C224.554 57.734 224.284 58.1353 224.088 58.602C223.901 59.0593 223.808 59.5587 223.808 60.1C223.808 60.6413 223.901 61.1453 224.088 61.612C224.284 62.0693 224.554 62.466 224.9 62.802C225.245 63.138 225.651 63.3993 226.118 63.586C226.594 63.7727 227.107 63.866 227.658 63.866C228.19 63.866 228.689 63.7727 229.156 63.586C229.622 63.39 230.042 63.0913 230.416 62.69L231.326 63.572C230.878 64.076 230.332 64.4587 229.688 64.72C229.053 64.9813 228.353 65.112 227.588 65.112ZM239.849 65L236.293 60.17L237.427 59.47L241.445 65H239.849ZM233.255 65V55.2H234.627V65H233.255ZM234.207 60.688V59.456H237.385V60.688H234.207ZM237.553 60.254L236.265 60.058L239.779 55.2H241.277L237.553 60.254ZM242.88 65V55.2H244.266V62.76L250.062 55.2H251.35V65H249.978V57.454L244.168 65H242.88ZM254.405 65V55.2H255.791V62.76L261.587 55.2H262.875V65H261.503V57.454L255.693 65H254.405ZM258.619 54.514C257.854 54.514 257.261 54.346 256.841 54.01C256.43 53.674 256.22 53.2027 256.211 52.596H257.205C257.214 52.96 257.345 53.2447 257.597 53.45C257.849 53.646 258.19 53.744 258.619 53.744C259.039 53.744 259.375 53.646 259.627 53.45C259.888 53.2447 260.024 52.96 260.033 52.596H261.013C261.004 53.2027 260.789 53.674 260.369 54.01C259.958 54.346 259.375 54.514 258.619 54.514ZM110.528 82V73.054L110.878 73.418H107.182V72.2H115.26V73.418H111.564L111.9 73.054V82H110.528ZM118.236 76.428H123.276V77.618H118.236V76.428ZM118.362 80.782H124.074V82H116.962V72.2H123.878V73.418H118.362V80.782ZM125.113 72.2H126.723L129.285 75.784L131.847 72.2H133.485L130.167 76.904L133.751 82H132.099L129.285 78.094L126.485 82H124.875L128.445 76.96L125.113 72.2ZM142.214 72.2H143.614V82H142.214V72.2ZM136.586 82H135.186V72.2H136.586V82ZM142.34 77.632H136.446V76.414H142.34V77.632ZM146.671 82V72.2H148.057V79.76L153.853 72.2H155.141V82H153.769V74.454L147.959 82H146.671ZM164.79 82L161.234 77.17L162.368 76.47L166.386 82H164.79ZM158.196 82V72.2H159.568V82H158.196ZM159.148 77.688V76.456H162.326V77.688H159.148ZM162.494 77.254L161.206 77.058L164.72 72.2H166.218L162.494 77.254ZM167.848 80.768C168.333 80.9453 168.781 80.992 169.192 80.908C169.602 80.8147 169.971 80.502 170.298 79.97L170.774 79.214L170.914 79.06L174.512 72.2H175.898L171.544 80.264C171.217 80.88 170.834 81.3467 170.396 81.664C169.966 81.972 169.5 82.14 168.996 82.168C168.501 82.2053 167.997 82.112 167.484 81.888L167.848 80.768ZM170.872 80.306L166.574 72.2H168.072L171.642 79.186L170.872 80.306ZM177.35 82V72.2H178.498L182.894 79.606H182.278L186.618 72.2H187.766L187.78 82H186.436L186.422 74.314H186.744L182.88 80.81H182.236L178.344 74.314H178.694V82H177.35Z" fill="#00ECDC"/>
</svg>
